<?xml version="1.0" standalone="no"?>
<!DOCTYPE svg PUBLIC "-//W3C//DTD SVG 20010904//EN"
 "http://www.w3.org/TR/2001/REC-SVG-20010904/DTD/svg10.dtd">
<svg version="1.0" xmlns="http://www.w3.org/2000/svg"
 width="591.000000pt" height="591.000000pt" viewBox="0 0 591.000000 591.000000"
 preserveAspectRatio="xMidYMid meet">
<metadata>
Created by potrace 1.11, written by Peter Selinger 2001-2013
</metadata>
<g transform="translate(0.000000,591.000000) scale(0.100000,-0.100000)"
fill="#000000" stroke="none">
<path d="M2356 5644 c-9 -8 -20 -12 -26 -9 -6 4 -9 1 -8 -6 2 -7 -1 -13 -7
-14 -16 0 -56 -31 -49 -37 3 -3 -11 -11 -30 -18 -20 -6 -40 -19 -46 -28 -8
-14 -10 -14 -10 -2 0 12 -3 11 -11 -2 -5 -10 -17 -18 -24 -18 -8 0 -15 -5 -15
-11 0 -5 -4 -7 -10 -4 -5 3 -10 2 -10 -4 0 -5 -16 -15 -34 -22 -19 -7 -32 -17
-29 -22 4 -6 -2 -8 -15 -5 -15 4 -19 2 -15 -8 4 -10 0 -12 -11 -8 -9 3 -16 1
-16 -6 0 -6 -4 -8 -10 -5 -5 3 -10 1 -10 -5 0 -7 -7 -10 -15 -6 -8 3 -14 0
-12 -7 1 -7 -6 -11 -15 -11 -10 1 -15 -2 -12 -7 3 -5 0 -10 -5 -10 -6 -1 -16
-2 -21 -3 -6 0 -15 -7 -19 -15 -5 -8 -16 -11 -24 -8 -12 4 -14 2 -10 -10 4
-11 2 -14 -5 -9 -7 4 -12 2 -12 -4 0 -6 -4 -9 -8 -6 -5 3 -19 -4 -30 -15 -12
-11 -22 -16 -22 -12 0 4 -7 -2 -16 -13 -8 -10 -13 -13 -9 -7 4 8 1 11 -9 7 -8
-3 -17 -12 -20 -20 -3 -9 -10 -12 -16 -9 -6 3 -13 0 -16 -9 -3 -8 -14 -13 -25
-11 -11 2 -17 0 -14 -6 4 -5 2 -9 -4 -9 -5 0 -17 -7 -25 -16 -9 -9 -16 -11
-16 -4 0 6 -5 8 -10 5 -6 -4 -7 -11 -4 -17 5 -7 1 -9 -9 -5 -9 3 -18 0 -21 -9
-3 -9 -10 -12 -16 -9 -5 3 -10 1 -10 -4 0 -6 -7 -11 -16 -11 -8 0 -13 -4 -10
-8 2 -4 -5 -9 -17 -9 -12 -1 -23 -7 -25 -13 -2 -5 -10 -10 -18 -10 -8 0 -17
-7 -20 -15 -4 -8 -10 -12 -15 -9 -5 3 -9 0 -9 -6 0 -7 -6 -10 -14 -7 -8 3 -17
-1 -20 -10 -4 -8 -12 -13 -19 -10 -8 3 -19 -4 -25 -14 -7 -10 -21 -19 -33 -19
-11 0 -18 -4 -15 -9 3 -4 -6 -6 -19 -3 -14 2 -25 0 -25 -6 0 -12 -33 -10 -42
3 -4 6 -13 11 -20 11 -28 4 -58 17 -58 26 0 5 -4 7 -8 4 -5 -3 -18 2 -28 12
-30 26 -64 43 -73 38 -5 -3 -16 3 -26 14 -10 11 -28 20 -39 20 -17 0 -18 2 -6
10 12 8 11 10 -7 10 -13 0 -23 5 -23 10 0 6 -9 10 -21 10 -11 0 -17 5 -14 10
3 6 -3 10 -14 10 -12 0 -21 5 -21 10 0 6 -7 10 -15 10 -8 0 -15 5 -15 11 0 6
-9 9 -20 6 -11 -3 -18 0 -17 6 1 6 -7 13 -18 15 -11 2 -26 11 -32 20 -7 9 -13
12 -13 6 0 -5 -7 0 -16 11 -8 11 -17 19 -19 18 -13 -7 -25 -2 -19 9 4 7 3 8
-5 4 -7 -5 -20 1 -31 13 -13 16 -20 18 -23 9 -4 -10 -6 -10 -6 0 -1 6 -8 12
-16 12 -8 0 -15 5 -15 10 0 6 -7 10 -15 10 -8 0 -15 3 -15 8 0 4 -11 12 -25
19 -16 7 -23 7 -18 1 3 -7 1 -8 -5 -4 -7 4 -12 13 -12 19 0 7 -10 14 -22 14
-13 1 -24 7 -26 13 -2 5 -10 10 -18 10 -8 0 -14 5 -14 10 0 6 -9 10 -21 10
-11 0 -17 5 -14 10 6 10 -7 14 -33 11 -6 -1 -12 5 -12 14 0 9 -4 14 -9 11 -5
-3 -14 1 -21 9 -7 8 -16 12 -21 9 -5 -3 -9 0 -9 5 0 6 -9 11 -20 11 -12 0 -20
7 -20 18 0 13 -2 14 -9 4 -7 -11 -9 -10 -15 3 -3 9 -10 14 -15 10 -5 -3 -12
-1 -16 5 -4 6 -11 8 -16 4 -5 -3 -8 0 -7 8 2 7 -4 13 -12 13 -8 0 -23 8 -32
18 -16 18 -17 18 -28 -2 -8 -16 -8 -21 1 -21 8 0 8 -4 -1 -15 -10 -12 -10 -15
0 -15 10 0 10 -3 0 -15 -10 -12 -10 -15 0 -15 10 0 10 -4 -1 -16 -7 -9 -9 -18
-3 -22 10 -8 14 -52 5 -52 -3 0 -6 -11 -6 -25 0 -14 4 -25 9 -25 5 0 3 -7 -4
-15 -7 -8 -8 -15 -3 -15 5 0 10 -7 10 -15 0 -8 -5 -15 -10 -15 -5 0 -4 -6 2
-14 9 -10 8 -16 -4 -26 -12 -10 -13 -16 -4 -26 6 -8 7 -14 2 -14 -6 0 -7 -18
-3 -45 4 -26 3 -48 -3 -52 -5 -3 -3 -9 4 -14 8 -5 9 -9 3 -9 -7 0 -9 -15 -4
-45 4 -26 3 -48 -3 -52 -5 -3 -3 -9 4 -14 8 -5 9 -9 3 -9 -7 0 -9 -15 -4 -45
4 -26 3 -48 -3 -52 -5 -3 -3 -9 4 -14 8 -5 9 -9 3 -9 -7 0 -9 -15 -4 -45 4
-26 3 -48 -3 -52 -5 -3 -3 -9 4 -14 8 -5 9 -9 3 -9 -7 0 -9 -15 -4 -45 4 -26
3 -48 -3 -52 -5 -3 -3 -9 4 -14 8 -5 9 -9 3 -9 -7 0 -9 -15 -4 -45 4 -26 3
-48 -3 -52 -5 -3 -3 -9 4 -14 8 -5 9 -9 3 -9 -7 0 -9 -15 -4 -45 4 -26 3 -48
-3 -52 -5 -3 -3 -9 4 -14 8 -5 9 -9 3 -9 -7 0 -9 -15 -4 -45 4 -26 3 -48 -3
-52 -5 -3 -3 -9 4 -14 8 -5 9 -9 3 -9 -7 0 -9 -15 -4 -45 4 -26 3 -48 -3 -52
-5 -3 -3 -9 4 -14 8 -5 9 -9 3 -9 -7 0 -9 -15 -4 -45 4 -26 3 -48 -3 -52 -5
-3 -3 -9 4 -14 8 -5 9 -9 3 -9 -7 0 -9 -15 -4 -45 4 -26 3 -48 -3 -52 -5 -3
-3 -9 4 -14 8 -5 9 -9 3 -9 -7 0 -9 -15 -4 -45 4 -26 3 -48 -3 -52 -5 -3 -3
-9 4 -14 8 -5 9 -9 3 -9 -7 0 -9 -15 -4 -45 4 -26 3 -48 -3 -52 -5 -3 -3 -9 4
-14 8 -5 9 -9 3 -9 -7 0 -9 -15 -4 -45 4 -26 3 -48 -3 -52 -5 -3 -3 -9 4 -14
8 -5 9 -9 3 -9 -7 0 -9 -15 -4 -45 4 -26 3 -48 -3 -52 -5 -3 -3 -9 4 -14 8 -5
9 -9 3 -9 -7 0 -9 -15 -4 -45 4 -26 3 -48 -3 -52 -5 -3 -3 -9 4 -14 8 -5 9 -9
3 -9 -7 0 -9 -15 -4 -45 4 -26 3 -48 -3 -52 -5 -3 -3 -9 4 -14 8 -5 9 -9 3 -9
-7 0 -9 -15 -4 -45 4 -26 3 -48 -3 -52 -5 -3 -3 -9 4 -14 8 -5 9 -9 3 -9 -7 0
-9 -15 -4 -45 4 -25 4 -47 1 -50 -7 -4 -4 -92 4 -112 2 -7 -1 -13 -8 -13 -8 0
-6 -4 3 -10 8 -5 10 -10 4 -10 -7 0 -9 -15 -4 -45 4 -26 3 -48 -3 -52 -5 -3
-3 -9 4 -14 8 -5 9 -9 3 -9 -7 0 -9 -15 -4 -45 4 -26 3 -48 -3 -52 -5 -3 -3
-9 4 -14 8 -5 9 -9 3 -9 -7 0 -9 -15 -4 -45 4 -26 3 -48 -3 -52 -5 -3 -3 -9 4
-14 8 -5 9 -9 3 -9 -7 0 -9 -15 -4 -45 4 -26 3 -48 -3 -52 -5 -3 -3 -9 4 -14
8 -5 9 -9 3 -9 -7 0 -9 -15 -4 -45 4 -26 3 -48 -3 -52 -5 -3 -3 -9 4 -14 8 -5
9 -9 3 -9 -7 0 -9 -15 -4 -45 4 -26 3 -48 -3 -52 -5 -3 -3 -9 4 -14 8 -5 9 -9
3 -9 -7 0 -9 -15 -4 -45 4 -26 3 -48 -3 -52 -5 -3 -3 -9 4 -14 8 -5 9 -9 3 -9
-7 0 -9 -15 -4 -45 4 -26 3 -48 -3 -52 -5 -3 -3 -9 4 -14 8 -5 9 -9 3 -9 -7 0
-9 -15 -4 -45 4 -26 3 -48 -3 -52 -5 -3 -3 -9 4 -14 8 -5 9 -9 3 -9 -7 0 -9
-15 -4 -45 4 -26 3 -48 -3 -52 -5 -3 -3 -9 4 -14 8 -5 9 -9 3 -9 -7 0 -9 -15
-4 -45 4 -26 3 -48 -3 -52 -5 -3 -3 -9 4 -14 8 -5 9 -9 3 -9 -7 0 -9 -15 -4
-45 4 -26 3 -48 -3 -52 -5 -3 -3 -9 4 -14 8 -5 9 -9 3 -9 -7 0 -9 -15 -4 -45
4 -26 3 -48 -3 -52 -5 -3 -3 -9 4 -14 8 -5 9 -9 3 -9 -7 0 -9 -15 -4 -45 4
-26 3 -48 -3 -52 -5 -3 -3 -9 4 -14 8 -5 9 -9 3 -9 -7 0 -9 -15 -4 -45 4 -26
3 -48 -3 -52 -5 -3 -3 -9 4 -14 8 -5 9 -9 3 -9 -7 0 -9 -15 -4 -45 4 -26 3
-48 -3 -52 -5 -3 -3 -9 4 -14 8 -5 9 -9 3 -9 -7 0 -9 -15 -4 -45 4 -26 3 -48
-3 -52 -5 -3 -3 -9 4 -14 8 -5 9 -9 3 -9 -7 0 -9 -15 -4 -45 4 -26 3 -48 -3
-52 -5 -3 -3 -9 4 -14 8 -5 9 -9 3 -9 -7 0 -9 -15 -4 -45 4 -24 3 -48 -2 -53
-6 -6 -4 -15 4 -23 14 -15 20 -49 9 -49 -3 0 -6 -11 -6 -25 0 -14 5 -25 10
-25 6 0 3 -5 -5 -10 -8 -5 -10 -10 -5 -10 6 0 10 -11 10 -25 0 -14 -2 -25 -5
-25 -3 0 -5 -11 -5 -25 0 -14 4 -25 9 -25 5 0 3 -7 -4 -15 -7 -8 -8 -15 -3
-15 5 0 10 -7 10 -15 0 -8 -5 -15 -10 -15 -5 0 -5 -6 2 -13 8 -10 7 -17 -2
-26 -18 -18 22 -11 46 9 10 8 21 15 25 14 11 0 30 20 25 28 -2 4 3 5 12 2 9
-4 22 1 31 12 9 11 13 14 10 8 -3 -6 2 -11 10 -11 8 0 13 5 11 11 -3 7 6 17
19 23 18 8 22 8 17 0 -3 -7 6 0 22 16 18 18 34 25 46 22 15 -5 17 -2 12 11 -4
12 -3 15 5 10 7 -4 12 -2 12 4 0 6 4 9 8 6 5 -3 19 4 30 15 12 11 22 16 22 12
0 -4 7 2 16 13 8 10 13 13 9 7 -4 -8 -1 -11 9 -7 8 3 17 12 20 20 3 9 10 13
15 9 6 -3 13 1 18 9 4 8 11 15 16 15 4 0 20 7 36 15 16 9 32 12 36 8 5 -4 5
-2 2 5 -5 7 11 20 43 34 27 12 47 26 44 30 -3 5 2 6 10 3 9 -4 16 -1 16 6 0 7
7 10 16 6 8 -3 13 -2 10 3 -3 5 4 11 15 14 12 3 19 9 16 14 -3 4 6 9 20 10 14
0 30 7 37 13 8 10 8 11 -3 5 -10 -5 -12 -4 -7 4 4 6 12 9 17 6 5 -3 19 3 31
14 12 12 30 21 40 21 10 0 18 4 18 8 0 5 16 16 35 25 19 9 35 20 35 25 0 4 10
9 22 9 13 1 29 10 36 20 7 10 14 17 15 15 5 -8 36 11 31 19 -3 5 -1 9 5 9 5 0
12 -6 14 -12 4 -10 6 -10 6 0 1 6 8 12 16 12 8 0 15 3 15 8 0 4 11 12 25 19
19 8 24 8 19 0 -3 -7 4 -1 16 13 12 14 18 19 14 11 -4 -9 -3 -12 3 -8 7 5 8
20 3 42 -4 19 -4 35 0 35 4 0 4 18 0 40 -5 27 -4 40 4 40 6 0 4 5 -4 10 -9 6
-10 10 -3 10 8 0 9 9 3 30 -5 17 -5 30 -1 30 5 0 5 18 1 40 -5 27 -4 40 4 40
6 0 4 5 -4 10 -9 6 -10 10 -3 10 8 0 9 9 3 30 -5 17 -5 30 -1 30 5 0 5 18 1
40 -5 27 -4 40 4 40 6 0 4 5 -4 10 -9 6 -10 10 -3 10 8 0 9 9 3 30 -5 17 -5
30 -1 30 5 0 5 18 1 40 -5 27 -4 40 4 40 6 0 4 5 -4 10 -9 6 -10 10 -3 10 8 0
9 9 3 30 -5 17 -5 30 -1 30 5 0 5 18 1 40 -5 27 -4 40 4 40 6 0 4 5 -4 10 -9
6 -10 10 -3 10 8 0 9 9 3 30 -5 17 -5 30 -1 30 5 0 5 18 1 40 -5 27 -4 40 4
40 6 0 4 5 -4 10 -9 6 -10 10 -3 10 8 0 9 9 3 30 -5 17 -5 30 -1 30 5 0 5 18
1 40 -5 27 -4 40 4 40 6 0 4 5 -4 10 -11 7 -11 10 -2 10 10 0 10 5 2 20 -6 12
-7 20 -1 20 6 0 6 11 1 30 -5 16 -5 30 -1 30 5 0 5 18 1 40 -4 22 -4 40 0 40
9 0 5 73 -4 89 -4 6 -3 11 3 11 6 0 6 11 1 30 -5 17 -5 30 -1 30 5 0 5 18 1
40 -4 22 -4 40 0 40 3 0 4 23 0 50 -4 28 -3 50 1 50 4 0 4 14 -1 30 -5 17 -5
30 -1 30 5 0 5 18 1 40 -4 22 -4 40 0 40 3 0 4 23 0 50 -4 28 -3 50 1 50 4 0
4 14 -1 30 -5 17 -5 30 -1 30 5 0 5 18 1 40 -4 22 -4 40 0 40 3 0 4 23 0 50
-4 28 -3 50 1 50 4 0 4 14 -1 30 -5 17 -5 30 -1 30 5 0 5 18 1 40 -4 22 -4 40
0 40 3 0 4 23 0 50 -4 28 -3 50 1 50 4 0 4 14 -1 30 -5 17 -5 30 -1 30 5 0 5
18 1 40 -4 22 -4 40 0 40 3 0 4 23 0 50 -4 28 -3 50 1 50 4 0 4 13 -1 29 -6
21 -5 31 3 35 9 3 8 5 -1 5 -7 1 2 15 20 32 18 17 27 27 19 23 -9 -5 -12 -3
-7 4 4 7 16 12 26 12 11 0 34 14 52 32 18 18 34 31 36 30 8 -7 32 0 27 8 -5 8
7 12 31 9 3 0 14 9 24 20 11 14 24 19 35 14 13 -4 16 -3 11 5 -4 7 -2 12 4 12
6 0 8 5 4 12 -4 7 -3 8 5 4 6 -4 18 -2 26 4 8 7 15 9 15 6 0 -4 10 2 22 14 12
11 30 20 40 20 11 0 17 4 14 9 -3 4 15 17 39 27 25 10 45 21 45 24 0 3 9 11
21 18 17 11 20 11 14 0 -3 -7 0 -5 9 6 8 10 20 15 27 10 8 -4 10 -3 5 4 -4 7
-1 12 8 12 9 0 16 4 16 10 0 5 7 6 17 3 11 -4 14 -3 9 5 -4 7 -1 12 8 12 9 0
16 5 16 11 0 5 4 8 9 5 5 -3 14 1 21 10 7 8 19 13 27 10 8 -3 11 -1 8 4 -3 6
3 10 15 10 12 0 18 5 15 10 -3 6 0 10 9 10 8 0 17 6 19 13 4 9 6 9 6 -2 1 -8
9 -5 22 10 11 13 17 17 13 9 -4 -8 3 -5 15 8 12 12 28 22 36 22 8 0 15 5 15
10 0 6 7 10 15 10 8 0 15 5 15 10 0 6 7 10 15 10 8 0 24 9 35 20 11 11 20 15
20 10 0 -6 10 -2 22 9 12 12 30 23 40 27 10 3 18 10 18 15 0 6 4 7 10 4 5 -3
21 2 35 11 14 9 32 14 40 10 9 -3 13 -2 10 4 -3 6 -2 10 3 10 6 0 12 -18 14
-40 2 -23 -1 -40 -7 -40 -5 0 -3 -5 5 -10 11 -7 11 -10 2 -10 -10 0 -10 -5 -2
-20 8 -15 8 -20 -2 -20 -9 0 -9 -3 2 -10 11 -7 11 -10 2 -10 -10 0 -10 -5 -2
-20 8 -15 8 -20 -2 -20 -9 0 -9 -3 2 -10 13 -9 13 -10 0 -10 -13 0 -13 -1 0
-10 11 -7 11 -10 2 -10 -10 0 -10 -5 -2 -20 6 -11 7 -20 2 -20 -5 0 -6 -18 -2
-40 5 -25 4 -40 -3 -40 -5 0 -4 -7 3 -15 10 -12 10 -15 -1 -15 -9 0 -10 -3 -4
-8 6 -4 10 -33 10 -65 0 -31 -4 -57 -10 -57 -5 0 -4 -4 4 -9 8 -5 9 -11 3 -15
-6 -3 -7 -20 -2 -41 5 -24 4 -35 -4 -35 -6 0 -4 -5 4 -10 11 -7 11 -10 2 -10
-10 0 -10 -5 -2 -20 8 -15 8 -20 -2 -20 -9 0 -9 -3 2 -10 13 -9 13 -10 0 -10
-13 0 -13 -1 0 -10 11 -7 11 -10 2 -10 -9 0 -10 -5 -2 -19 6 -13 6 -21 0 -23
-7 -2 -7 -14 -1 -36 7 -23 6 -32 -2 -32 -8 0 -8 -3 -2 -8 12 -9 13 -82 1 -82
-5 0 -3 -7 4 -15 10 -12 10 -15 -1 -15 -9 0 -10 -3 -4 -8 6 -4 10 -24 10 -45
0 -20 -4 -37 -10 -37 -5 0 -3 -5 5 -10 11 -7 11 -10 2 -10 -10 0 -10 -5 -2
-20 8 -15 8 -20 -2 -20 -9 0 -9 -3 2 -10 11 -7 11 -10 2 -10 -10 0 -10 -5 -2
-20 8 -15 8 -20 -2 -20 -9 0 -9 -3 2 -10 13 -9 13 -10 0 -10 -13 0 -13 -1 0
-10 11 -7 11 -10 2 -10 -10 0 -10 -5 -2 -20 6 -11 7 -20 2 -20 -5 0 -6 -18 -2
-40 5 -25 4 -40 -3 -40 -5 0 -4 -7 3 -15 10 -12 10 -15 -1 -15 -9 0 -10 -3 -4
-8 6 -4 10 -33 10 -65 0 -31 -4 -57 -10 -57 -5 0 -4 -4 4 -9 8 -5 9 -11 3 -15
-6 -3 -7 -20 -2 -41 5 -24 4 -35 -4 -35 -6 0 -4 -5 4 -10 11 -7 11 -10 2 -10
-10 0 -10 -5 -2 -20 8 -15 8 -20 -2 -20 -9 0 -9 -3 2 -10 13 -9 13 -10 0 -10
-13 0 -13 -1 0 -10 11 -7 11 -10 2 -10 -9 0 -10 -5 -2 -19 6 -13 6 -21 0 -23
-7 -2 -7 -14 -1 -36 7 -23 6 -32 -2 -32 -8 0 -8 -3 -2 -8 12 -9 13 -82 1 -82
-5 0 -3 -7 4 -15 10 -12 10 -15 -1 -15 -9 0 -10 -3 -4 -8 6 -4 10 -24 10 -45
0 -20 -4 -37 -10 -37 -5 0 -3 -5 5 -10 11 -7 11 -10 2 -10 -10 0 -10 -5 -2
-20 8 -15 8 -20 -2 -20 -9 0 -9 -3 2 -10 11 -7 11 -10 2 -10 -10 0 -10 -5 -2
-20 8 -15 8 -20 -2 -20 -9 0 -9 -3 2 -10 13 -9 13 -10 0 -10 -13 0 -13 -1 0
-10 11 -7 11 -10 2 -10 -10 0 -10 -5 -2 -20 6 -11 7 -20 2 -20 -5 0 -6 -18 -2
-40 5 -25 4 -40 -3 -40 -5 0 -4 -7 3 -15 10 -12 10 -15 -1 -15 -9 0 -10 -3 -4
-8 6 -4 10 -33 10 -65 0 -31 -4 -57 -10 -57 -5 0 -4 -4 4 -9 8 -5 9 -11 3 -15
-6 -3 -7 -20 -2 -41 5 -24 4 -35 -4 -35 -6 0 -4 -5 4 -10 11 -7 11 -10 2 -10
-10 0 -10 -5 -2 -20 8 -15 8 -20 -2 -20 -9 0 -9 -3 2 -10 13 -9 13 -10 0 -10
-13 0 -13 -1 0 -10 10 -6 11 -10 3 -10 -9 0 -10 -7 -3 -25 5 -14 6 -25 2 -25
-4 0 1 -5 11 -11 9 -5 21 -8 26 -4 5 3 12 -3 15 -13 3 -10 16 -19 28 -19 13
-1 24 -7 26 -12 2 -5 9 -8 16 -5 8 3 20 -2 29 -10 9 -9 20 -16 24 -16 5 0 19
-9 31 -20 12 -12 22 -16 22 -10 0 6 10 2 22 -10 12 -11 28 -20 35 -20 7 0 13
-4 13 -10 0 -5 9 -10 20 -10 11 0 23 -7 26 -15 4 -8 10 -12 15 -9 5 3 9 0 9
-6 0 -7 7 -9 16 -6 8 3 12 2 9 -4 -3 -6 1 -10 10 -10 10 0 13 -5 9 -12 -4 -6
-3 -8 4 -4 6 3 27 -5 47 -18 20 -14 45 -28 56 -31 10 -4 19 -10 19 -14 0 -5
14 -11 31 -15 17 -3 28 -10 24 -16 -4 -6 7 -13 24 -16 17 -4 31 -10 31 -15 0
-5 7 -9 15 -9 8 0 15 -4 15 -10 0 -5 9 -10 20 -10 11 0 20 -4 20 -9 0 -5 14
-14 30 -21 17 -7 30 -17 30 -22 0 -5 4 -6 10 -3 5 3 10 1 10 -5 0 -7 6 -10 14
-7 8 3 17 -1 20 -9 3 -9 10 -12 16 -9 5 3 10 -2 10 -12 0 -14 2 -15 9 -5 6 11
10 10 15 -3 4 -11 12 -15 23 -11 10 4 14 4 10 0 -9 -9 30 -37 42 -30 4 3 16
-3 26 -14 10 -11 28 -20 39 -20 17 0 18 -2 6 -10 -13 -8 -12 -10 4 -10 10 0
25 -8 32 -17 10 -14 13 -15 14 -4 0 11 6 8 21 -7 11 -12 24 -20 30 -17 5 4 9
1 9 -4 0 -6 7 -11 16 -11 9 0 13 -5 9 -12 -4 -7 0 -5 8 5 11 13 13 27 7 48 -6
20 -5 29 3 29 8 0 8 3 2 8 -12 9 -13 82 -1 82 5 0 3 7 -4 15 -10 12 -10 15 1
15 9 0 10 3 4 8 -5 4 -10 24 -10 45 0 20 5 37 10 37 6 0 3 5 -5 10 -8 5 -10
10 -4 10 6 0 9 13 6 30 -2 17 0 30 6 30 11 0 11 18 -1 38 -5 7 -3 12 5 12 8 0
9 3 3 8 -11 8 -15 52 -5 52 9 0 6 32 -4 48 -4 7 -2 12 5 12 8 0 8 4 1 13 -7 8
-7 18 -2 27 5 9 5 19 -2 27 -7 9 -7 13 2 13 9 0 9 4 2 13 -7 8 -7 18 -2 27 5
9 5 19 -2 27 -7 9 -7 13 2 13 9 0 9 4 2 13 -7 8 -7 18 -2 27 5 9 5 19 -2 27
-7 9 -7 13 1 13 7 0 9 5 5 12 -10 16 -13 48 -4 48 10 0 6 44 -4 52 -6 4 -4 13
3 22 11 12 11 16 1 16 -10 0 -10 3 0 15 7 8 8 15 3 15 -11 0 -11 29 0 46 3 6
4 14 0 18 -8 8 -11 56 -3 56 10 0 6 44 -4 52 -6 4 -4 13 3 22 11 12 11 16 1
16 -10 0 -10 3 0 15 7 8 8 15 3 15 -11 0 -11 29 0 46 3 6 4 14 0 18 -8 8 -11
56 -3 56 3 0 5 11 5 25 0 14 -4 25 -10 25 -5 0 -3 5 5 10 8 5 11 10 5 10 -5 0
-10 11 -10 25 0 14 3 25 6 25 8 0 5 33 -5 48 -4 7 -2 12 5 12 8 0 8 4 1 13 -7
8 -7 18 -2 27 5 9 5 19 -2 27 -7 9 -7 13 2 13 9 0 9 4 2 13 -7 8 -7 18 -2 27
5 9 5 19 -2 27 -7 9 -7 13 2 13 9 0 9 4 2 13 -7 8 -7 18 -2 27 5 9 5 19 -2 27
-7 9 -7 13 1 13 7 0 9 5 5 12 -10 16 -13 48 -4 48 10 0 6 44 -4 52 -6 4 -4 13
3 22 11 12 11 16 1 16 -10 0 -10 3 0 15 7 8 8 15 3 15 -11 0 -11 29 0 46 3 6
4 14 0 18 -8 8 -11 56 -3 56 10 0 6 44 -4 52 -6 4 -4 13 3 22 11 12 11 16 1
16 -10 0 -10 3 0 15 7 8 8 15 3 15 -11 0 -11 29 0 46 3 6 4 14 0 18 -8 8 -11
56 -3 56 3 0 5 11 5 25 0 14 -4 25 -10 25 -5 0 -3 5 5 10 8 5 11 10 5 10 -5 0
-10 11 -10 25 0 14 4 25 8 25 4 0 3 9 -3 20 -6 11 -7 20 -3 20 4 0 8 11 8 25
0 14 -4 25 -10 25 -5 0 -3 5 5 10 8 5 11 10 5 10 -5 0 -10 11 -10 25 0 14 3
25 6 25 10 0 5 44 -6 53 -6 6 -5 10 3 14 10 4 10 8 1 19 -9 11 -9 14 1 14 10
0 9 4 -1 18 -7 9 -10 14 -5 10 4 -4 19 4 33 18 13 13 30 24 38 24 8 0 15 7 15
16 0 8 4 13 9 10 5 -3 20 4 35 15 14 11 31 17 37 13 7 -4 9 -3 6 3 -6 10 50
40 65 35 4 -1 4 6 1 15 -5 12 -2 15 10 10 9 -3 17 -2 17 4 0 6 5 7 10 4 6 -3
10 -1 10 5 0 7 7 10 15 6 8 -3 14 0 12 7 -1 7 5 12 13 12 8 0 20 5 25 12 6 7
17 13 25 15 8 2 22 10 30 18 23 23 60 41 69 35 5 -3 11 2 15 10 3 8 12 15 21
15 8 0 15 5 15 10 0 6 7 10 15 10 8 0 24 10 36 23 12 12 18 15 14 7 -7 -12 -6
-13 7 -3 8 7 18 9 22 5 4 -4 6 0 4 8 -1 8 3 14 10 12 7 -1 15 4 18 12 3 8 15
12 27 10 12 -2 16 -2 9 2 -17 8 -5 24 13 17 8 -3 15 0 15 6 0 6 6 10 13 9 6
-2 11 3 9 10 -1 8 2 11 9 6 7 -4 18 1 26 11 9 14 13 15 13 4 1 -10 3 -9 11 4
5 9 17 17 24 17 8 0 15 5 15 11 0 5 5 7 10 4 6 -3 10 -1 10 5 0 6 4 9 9 6 5
-4 11 -2 13 3 1 5 10 11 18 13 8 2 21 9 28 16 8 7 18 9 24 6 6 -4 8 -2 4 4 -3
6 3 13 14 17 11 3 20 11 20 16 0 6 4 8 9 4 5 -3 17 3 27 12 10 10 18 17 18 15
1 -2 13 -1 28 3 16 4 25 11 22 16 -3 5 2 6 10 3 9 -3 16 -1 16 6 0 6 4 9 9 6
5 -4 11 0 13 6 3 8 9 4 17 -10 6 -12 8 -22 3 -22 -4 0 -5 -27 -2 -60 3 -33 3
-60 -1 -60 -3 0 -3 -18 1 -40 5 -27 4 -40 -4 -40 -6 0 -4 -5 4 -10 9 -6 10
-10 3 -10 -8 0 -9 -9 -3 -30 5 -16 5 -30 1 -30 -5 0 -5 -18 -1 -40 5 -27 4
-40 -4 -40 -6 0 -4 -5 4 -10 8 -5 10 -10 5 -10 -7 0 -9 -22 -5 -60 3 -33 3
-60 -1 -60 -4 0 -4 -13 1 -30 5 -16 5 -30 1 -30 -5 0 -5 -18 -1 -40 4 -22 4
-40 1 -40 -4 0 -4 -27 -1 -60 3 -33 3 -60 -1 -60 -3 0 -3 -18 1 -40 5 -27 4
-40 -4 -40 -6 0 -4 -5 4 -10 8 -5 10 -10 5 -10 -14 0 -6 -73 9 -82 8 -5 7 -8
-2 -8 -10 0 -10 -5 -1 -21 8 -16 8 -20 -1 -14 -9 6 -9 3 -1 -13 6 -12 7 -23 3
-26 -9 -5 -7 -64 2 -73 3 -3 1 -14 -5 -24 -7 -14 -6 -19 2 -19 8 0 8 -4 -1
-15 -10 -12 -10 -15 0 -15 10 0 10 -3 0 -15 -10 -12 -10 -15 0 -15 10 0 10 -3
0 -15 -10 -12 -10 -15 0 -15 10 0 10 -3 0 -15 -10 -12 -10 -15 1 -15 9 0 10
-3 4 -8 -15 -10 -18 -42 -4 -42 8 0 8 -4 -1 -15 -9 -11 -9 -15 -1 -15 7 0 9
-5 4 -12 -11 -18 -11 -31 0 -45 6 -9 5 -13 -3 -13 -10 0 -10 -3 0 -15 9 -11 9
-15 1 -15 -9 0 -9 -5 0 -21 8 -16 8 -20 -1 -14 -9 6 -9 2 -1 -14 9 -16 9 -21
-1 -21 -10 0 -10 -2 1 -9 11 -7 11 -9 0 -14 -12 -5 -12 -6 0 -6 11 -1 11 -4 1
-16 -10 -12 -10 -15 0 -15 10 0 10 -3 0 -15 -10 -12 -10 -15 1 -15 10 0 10 -3
1 -12 -7 -7 -8 -17 -2 -29 6 -10 6 -20 2 -23 -9 -5 -7 -64 2 -73 3 -3 1 -14
-5 -24 -7 -14 -6 -19 2 -19 8 0 8 -4 -1 -15 -10 -12 -10 -15 0 -15 10 0 10 -3
0 -15 -7 -8 -8 -15 -3 -15 5 0 10 -7 10 -15 0 -8 -5 -15 -10 -15 -5 0 -4 -6 2
-14 9 -11 9 -15 -1 -19 -11 -4 -11 -6 0 -6 10 -1 10 -6 2 -21 -8 -15 -8 -20 1
-20 8 0 8 -4 -1 -15 -10 -12 -10 -15 0 -15 9 0 9 -4 -1 -17 -17 -20 -17 -16 0
-36 10 -13 10 -17 1 -17 -10 0 -10 -3 0 -15 9 -11 9 -15 1 -15 -9 0 -9 -5 0
-21 8 -16 8 -20 -1 -14 -9 6 -9 2 -1 -14 9 -16 9 -21 -1 -21 -10 0 -10 -2 1
-9 11 -7 11 -9 0 -14 -12 -5 -12 -6 0 -6 11 -1 11 -4 1 -16 -10 -12 -10 -15 0
-15 10 0 10 -3 0 -15 -10 -12 -10 -15 1 -15 10 0 10 -3 1 -12 -7 -7 -8 -17 -2
-29 6 -10 6 -20 2 -23 -9 -5 -7 -64 2 -73 3 -3 1 -14 -5 -24 -7 -14 -6 -19 2
-19 8 0 8 -4 -1 -15 -10 -12 -10 -15 0 -15 10 0 10 -3 1 -14 -9 -11 -9 -15 1
-19 10 -4 10 -6 -1 -6 -11 -1 -11 -4 -1 -16 10 -12 10 -15 0 -15 -10 0 -10 -3
0 -15 10 -12 10 -15 -1 -15 -9 0 -10 -3 -4 -8 14 -10 17 -32 4 -32 -8 0 -8 -4
0 -14 9 -10 9 -16 1 -21 -13 -8 -9 -47 5 -57 6 -5 5 -8 -4 -8 -11 0 -11 -3 -1
-15 9 -11 9 -15 1 -15 -9 0 -9 -5 0 -21 8 -16 8 -20 -1 -14 -9 6 -9 2 -1 -14
9 -16 9 -21 -1 -21 -10 0 -10 -2 1 -9 11 -7 11 -9 0 -14 -12 -5 -12 -6 0 -6
11 -1 11 -4 1 -16 -10 -12 -10 -15 0 -15 10 0 10 -3 0 -15 -10 -12 -10 -15 1
-15 10 0 10 -3 1 -12 -7 -7 -8 -17 -2 -29 6 -10 6 -20 2 -23 -9 -5 -7 -64 2
-73 3 -3 1 -14 -5 -24 -7 -14 -6 -19 2 -19 8 0 8 -4 -1 -15 -10 -12 -10 -15 0
-15 10 0 10 -3 0 -15 -7 -8 -8 -15 -3 -15 5 0 10 -7 10 -15 0 -8 -5 -15 -10
-15 -5 0 -4 -6 2 -14 9 -11 9 -15 -1 -19 -11 -4 -11 -6 0 -6 10 -1 10 -6 2
-21 -8 -15 -8 -20 1 -20 8 0 8 -4 -1 -15 -10 -12 -10 -15 0 -15 9 0 9 -4 -1
-17 -14 -17 -14 -20 3 -40 7 -9 7 -13 -2 -13 -10 0 -10 -3 0 -15 9 -11 9 -15
1 -15 -9 0 -9 -5 0 -21 8 -16 8 -20 -1 -14 -9 6 -9 3 -1 -13 8 -15 8 -22 -2
-25 -9 -4 -9 -6 1 -6 9 -1 10 -6 3 -19 -5 -10 -6 -24 -1 -32 5 -8 4 -22 -1
-32 -7 -13 -6 -18 2 -18 8 0 8 -4 -1 -15 -10 -12 -10 -15 0 -15 10 0 10 -3 0
-15 -10 -12 -10 -15 1 -15 9 0 10 -3 2 -11 -8 -8 -7 -18 3 -37 8 -15 10 -28 6
-29 -4 -2 -5 -43 -2 -93 3 -50 1 -90 -3 -90 -5 0 -5 -4 -2 -10 3 -5 6 -35 7
-67 0 -32 3 -52 5 -45 3 6 9 10 14 6 5 -3 12 2 15 10 3 9 10 16 16 16 5 0 6
-6 3 -12 -4 -7 0 -5 8 5 8 9 19 17 26 17 6 0 11 5 11 11 0 6 6 9 14 6 8 -3 17
1 20 9 3 9 10 13 15 10 5 -3 12 1 15 10 3 8 10 12 16 9 6 -3 13 1 16 10 4 9
12 14 19 11 8 -3 16 2 19 10 3 9 10 12 16 9 5 -3 10 -1 10 4 0 6 6 10 13 8 6
-1 11 4 10 10 -2 7 0 12 5 11 8 -3 85 33 92 43 3 3 15 9 28 13 12 4 20 11 17
16 -3 5 4 7 15 5 11 -2 18 0 15 6 -4 5 1 9 9 9 9 0 16 5 16 11 0 5 5 7 10 4 6
-3 10 -1 10 5 0 7 7 9 16 6 8 -3 13 -2 10 3 -6 9 22 26 37 23 4 -1 7 3 7 9 0
5 5 7 10 4 6 -3 10 -1 10 5 0 6 4 9 9 6 5 -3 12 1 15 10 3 8 10 12 16 9 5 -3
10 -1 10 5 0 7 7 10 15 6 9 -3 19 3 25 14 6 11 18 20 26 20 8 0 12 4 9 10 -3
6 1 7 9 4 9 -3 16 -2 16 2 0 5 20 18 44 28 25 11 42 24 39 29 -3 5 0 7 8 5 8
-3 25 3 38 13 13 11 30 19 37 19 8 0 14 6 14 13 0 7 10 14 22 14 13 1 29 10
36 20 7 10 18 17 23 15 6 -1 17 5 25 13 9 8 20 13 25 10 5 -4 9 -2 9 4 0 6 11
13 25 17 14 3 23 10 20 14 -6 10 23 23 52 23 22 0 27 16 9 28 -4 4 -4 15 2 25
6 11 7 27 1 41 -5 13 -5 23 0 23 4 0 8 7 8 15 0 8 -5 15 -11 15 -6 0 -4 5 4
10 8 5 10 10 3 10 -12 0 -12 17 0 38 5 6 4 12 -2 12 -7 0 -7 8 -1 25 6 16 6
25 -1 25 -6 0 -6 7 1 20 6 11 7 20 3 20 -10 0 -9 63 1 78 4 7 2 12 -4 12 -7 0
-8 6 -1 17 5 10 5 26 0 40 -5 14 -5 23 1 23 12 0 9 22 -4 31 -4 4 -4 15 2 25
6 11 7 27 1 41 -5 13 -5 23 0 23 4 0 8 7 8 15 0 8 -5 15 -11 15 -6 0 -4 5 4
10 8 5 10 10 3 10 -12 0 -12 17 0 38 5 6 4 12 -2 12 -7 0 -7 8 -1 25 6 16 6
25 -1 25 -6 0 -6 7 1 20 6 11 7 20 3 20 -4 0 -8 14 -8 30 0 17 4 30 8 30 4 0
3 8 -2 18 -5 10 -6 24 -1 32 4 7 4 24 -1 37 -5 14 -5 23 1 23 12 0 9 22 -4 31
-4 4 -4 15 2 25 6 11 7 27 1 41 -5 13 -5 23 0 23 4 0 8 7 8 15 0 8 -5 15 -11
15 -6 0 -4 5 4 10 8 5 10 10 5 10 -6 0 -11 9 -12 20 -1 11 3 20 8 20 6 0 6 6
0 18 -5 10 -6 24 -1 32 4 7 4 24 -1 37 -5 14 -5 23 1 23 12 0 9 22 -4 31 -4 4
-4 15 2 25 6 11 7 27 1 41 -5 13 -5 23 0 23 4 0 8 7 8 15 0 8 -5 15 -11 15 -6
0 -4 5 4 10 8 5 10 10 3 10 -12 0 -12 17 0 38 5 6 4 12 -2 12 -7 0 -7 8 -1 25
6 16 6 25 -1 25 -6 0 -6 7 1 20 6 11 7 20 3 20 -4 0 -8 14 -8 30 0 17 4 30 8
30 4 0 3 8 -2 18 -5 10 -6 24 -1 32 4 7 4 24 -1 37 -5 14 -5 23 1 23 12 0 9
22 -4 31 -4 4 -4 15 2 25 6 11 7 27 1 41 -5 13 -5 23 0 23 4 0 8 7 8 15 0 8
-5 15 -11 15 -6 0 -4 5 4 10 8 5 10 10 3 10 -12 0 -12 17 0 38 5 6 4 12 -2 12
-7 0 -7 8 -1 25 6 16 6 25 -1 25 -6 0 -6 7 1 20 6 11 7 20 3 20 -4 0 -8 14 -8
30 0 17 4 30 8 30 4 0 3 8 -2 18 -5 10 -6 24 -1 32 4 7 4 24 -1 37 -5 14 -5
23 1 23 12 0 9 22 -4 31 -4 4 -4 15 2 25 6 11 7 27 1 41 -5 13 -5 23 0 23 4 0
8 7 8 15 0 8 -5 15 -11 15 -6 0 -4 5 4 10 8 5 10 10 5 10 -6 0 -11 9 -12 20
-1 11 3 20 8 20 6 0 6 6 0 18 -5 10 -6 24 -1 32 4 7 4 24 -1 37 -5 14 -5 23 1
23 12 0 9 22 -4 31 -4 4 -4 15 2 25 6 11 7 27 1 41 -5 13 -5 23 0 23 4 0 8 7
8 15 0 8 -5 15 -11 15 -6 0 -4 5 4 10 8 5 10 10 3 10 -12 0 -12 17 0 38 5 6 4
12 -2 12 -7 0 -7 8 -1 25 6 16 6 25 -1 25 -6 0 -6 7 1 20 6 11 7 20 3 20 -4 0
-8 14 -8 30 0 17 4 30 8 30 4 0 3 8 -2 18 -5 10 -6 24 -1 32 4 7 4 24 -1 37
-5 14 -5 23 1 23 12 0 9 22 -4 31 -4 4 -4 15 2 25 6 11 7 27 1 41 -5 13 -5 23
0 23 4 0 8 7 8 15 0 8 -5 15 -11 15 -6 0 -4 5 4 10 8 5 10 10 3 10 -12 0 -12
17 0 38 5 6 4 12 -2 12 -7 0 -7 8 -1 25 6 16 6 25 -1 25 -6 0 -6 7 1 20 6 11
7 20 3 20 -4 0 -8 14 -8 30 0 17 4 30 8 30 4 0 3 8 -2 18 -5 10 -6 24 -1 32 4
7 4 24 -1 37 -5 14 -5 23 1 23 12 0 9 22 -4 31 -4 4 -4 15 2 25 6 11 7 27 1
41 -5 13 -5 23 0 23 4 0 8 7 8 15 0 8 -5 15 -11 15 -6 0 -4 5 4 10 8 5 10 10
5 10 -6 0 -11 9 -12 20 -1 11 3 20 8 20 6 0 6 6 0 18 -5 10 -6 24 -1 32 4 7 4
24 -1 37 -5 14 -5 23 1 23 12 0 9 22 -4 31 -4 4 -4 15 2 25 6 11 7 27 1 41 -5
13 -5 23 0 23 4 0 8 7 8 15 0 8 -5 15 -11 15 -6 0 -4 5 4 10 8 5 10 10 4 10
-6 0 -11 7 -11 15 0 8 4 15 8 15 5 0 6 7 3 15 -4 8 -12 15 -20 15 -8 0 -14 4
-14 9 0 9 -60 37 -72 33 -5 -1 -8 3 -8 8 0 6 -9 10 -19 10 -11 0 -21 4 -23 9
-1 5 -10 11 -18 13 -8 2 -23 11 -34 21 -11 9 -26 17 -33 17 -7 0 -13 5 -13 10
0 6 -9 10 -20 10 -11 0 -20 5 -20 10 0 6 -7 10 -15 10 -8 0 -15 5 -15 11 0 6
-7 8 -16 5 -8 -3 -12 -2 -9 4 3 6 -1 10 -10 10 -10 0 -13 5 -9 13 4 6 4 9 -1
5 -4 -4 -15 -2 -23 5 -13 10 -15 9 -8 -3 7 -13 6 -13 -6 0 -22 25 -62 56 -54
42 7 -11 4 -11 -12 -1 -12 7 -19 17 -16 21 3 4 -1 5 -9 2 -8 -3 -18 0 -22 5
-3 6 -11 8 -17 5 -6 -4 -8 -2 -5 3 4 6 -1 17 -10 24 -12 10 -14 10 -9 2 12
-21 -5 -15 -25 9 -11 12 -19 16 -19 8 0 -8 -8 -4 -19 8 -10 12 -26 22 -35 22
-9 0 -16 4 -16 9 0 10 -60 37 -73 33 -5 -1 -6 2 -2 8 3 5 1 10 -5 10 -6 0 -18
7 -27 15 -8 8 -19 13 -24 10 -5 -4 -9 2 -9 12 0 14 -2 15 -9 5 -7 -11 -9 -11
-14 2 -4 9 -15 16 -26 16 -10 0 -22 7 -25 16 -3 8 -10 12 -16 9 -5 -3 -10 -1
-10 6 0 7 -3 9 -7 6 -3 -4 -12 1 -20 11 -10 11 -12 12 -8 2 4 -8 -2 -6 -12 6
-10 11 -26 20 -35 18 -9 -1 -19 7 -22 19 -3 12 -8 18 -12 14 -4 -4 -13 -2 -21
4 -7 6 -13 8 -13 4 0 -5 -9 2 -20 15 -11 13 -20 19 -20 15 0 -4 -8 2 -19 13
-10 12 -24 22 -30 22 -7 0 -10 4 -7 8 3 5 -1 9 -9 9 -8 0 -15 -5 -15 -11 0 -6
-5 -4 -10 4 -8 13 -10 12 -10 -4 0 -11 -3 -16 -7 -13 -3 4 -12 2 -20 -4 -7 -6
-13 -8 -13 -3 0 4 -11 -3 -25 -16 -13 -12 -23 -26 -20 -29 2 -4 -6 -8 -18 -8
-11 -1 -25 -9 -29 -18 -5 -8 -13 -13 -19 -10 -5 4 -12 0 -15 -9 -3 -8 -12 -12
-20 -9 -8 3 -14 0 -14 -6 0 -10 -52 -37 -74 -39 -5 0 -13 -7 -18 -16 -5 -9
-14 -13 -20 -10 -8 5 -9 1 -4 -11 5 -14 4 -16 -8 -6 -11 9 -15 8 -20 -5 -4
-10 -13 -14 -25 -11 -15 3 -18 1 -14 -11 4 -9 2 -13 -4 -9 -6 4 -18 1 -26 -7
-8 -8 -17 -12 -21 -9 -3 3 -8 -2 -12 -11 -3 -9 -10 -13 -15 -10 -5 3 -9 0 -9
-6 0 -6 -4 -8 -10 -5 -5 3 -10 1 -10 -4 0 -6 -9 -11 -19 -11 -11 0 -26 -8 -33
-19 -7 -10 -21 -17 -31 -15 -9 1 -15 -2 -12 -7 3 -4 -6 -11 -20 -15 -14 -3
-25 -9 -25 -13 0 -4 -16 -13 -35 -21 -19 -8 -35 -18 -35 -23 0 -5 -7 -7 -15
-3 -8 3 -14 0 -12 -7 1 -7 -5 -12 -13 -12 -8 0 -19 -6 -23 -12 -4 -7 -17 -13
-29 -13 -13 0 -18 -5 -15 -14 4 -10 0 -14 -14 -11 -12 2 -19 -2 -19 -11 0 -8
-3 -13 -7 -12 -12 3 -55 -13 -70 -26 -30 -26 -43 -36 -48 -36 -3 0 -3 6 0 13
4 6 0 4 -8 -5 -8 -10 -19 -18 -26 -18 -6 0 -11 -3 -11 -7 0 -11 -51 -33 -61
-27 -5 3 -9 0 -9 -5 0 -6 -3 -10 -7 -9 -12 2 -47 -14 -55 -26 -5 -7 -8 -6 -8
3 0 11 -3 11 -17 0 -10 -7 -15 -9 -11 -5 11 13 -33 41 -56 38 -12 -3 -16 0
-10 9 5 9 2 10 -10 6 -10 -4 -19 -1 -22 8 -4 8 -10 13 -14 10 -14 -8 -40 6
-40 22 0 9 -6 13 -15 9 -8 -3 -15 -1 -15 4 0 6 -6 10 -14 10 -7 0 -19 7 -26
15 -7 9 -18 14 -25 11 -6 -2 -17 5 -23 15 -7 10 -19 19 -27 19 -8 0 -24 9 -35
20 -11 11 -20 15 -20 10 0 -6 -10 -2 -22 10 -12 11 -28 20 -35 20 -7 0 -13 5
-13 11 0 6 -7 9 -15 5 -9 -3 -15 0 -15 9 0 8 -9 15 -20 15 -11 0 -20 5 -20 11
0 6 -7 8 -16 5 -9 -3 -12 -2 -9 4 4 6 -8 13 -25 17 -19 3 -27 9 -20 13 7 4 -1
10 -20 13 -17 4 -29 11 -25 17 3 6 0 7 -9 4 -9 -3 -16 -1 -16 6 0 6 -4 8 -10
5 -5 -3 -10 1 -10 9 0 10 -9 16 -25 16 -14 0 -25 5 -25 10 0 6 -7 10 -15 10
-8 0 -15 5 -15 10 0 6 -9 10 -20 10 -11 0 -20 4 -20 9 0 5 -13 14 -30 21 -16
7 -30 18 -30 24 0 6 -5 4 -10 -4 -8 -13 -10 -12 -10 4 0 12 -5 16 -15 12 -8
-3 -15 -1 -15 5 0 6 -7 8 -16 5 -8 -3 -13 -2 -10 2 3 5 -4 16 -15 25 -10 9
-19 14 -19 10 0 -4 -5 -2 -11 4 -6 6 -19 9 -28 6 -9 -4 -13 -3 -9 1 9 11 -14
35 -27 29 -6 -2 -21 8 -33 22 -13 14 -26 23 -31 20 -5 -2 -11 2 -15 10 -3 8
-12 15 -21 15 -8 0 -15 5 -15 10 0 15 -16 12 -34 -6z m2304 -28 c0 -2 -8 -10
-17 -17 -16 -13 -17 -12 -4 4 13 16 21 21 21 13z"/>
</g>
</svg>
