<?xml version="1.0" standalone="no"?>
<!DOCTYPE svg PUBLIC "-//W3C//DTD SVG 20010904//EN"
 "http://www.w3.org/TR/2001/REC-SVG-20010904/DTD/svg10.dtd">
<svg version="1.0" xmlns="http://www.w3.org/2000/svg"
 width="264.000000pt" height="264.000000pt" viewBox="0 0 264.000000 264.000000"
 preserveAspectRatio="xMidYMid meet">
<metadata>
Created by potrace 1.11, written by Peter Selinger 2001-2013
</metadata>
<g transform="translate(0.000000,264.000000) scale(0.100000,-0.100000)"
fill="#000000" stroke="none">
<path d="M238 2580 c-66 -20 -155 -99 -195 -171 -17 -32 -18 -84 -18 -1069 l0
-1035 35 -5 c31 -4 36 -9 40 -40 4 -31 9 -36 40 -40 31 -4 36 -9 40 -40 4 -28
10 -36 30 -38 14 -2 34 -7 45 -13 13 -6 385 -9 1040 -7 l1020 3 57 28 c65 32
121 89 152 156 21 46 21 51 24 941 2 638 0 910 -8 947 -9 42 -20 60 -51 86
-21 19 -39 37 -39 41 0 16 -198 209 -240 234 l-45 27 -950 2 c-522 1 -962 -2
-977 -7z m676 -600 c34 -91 111 -305 171 -477 61 -172 113 -309 116 -305 13
15 75 181 207 557 l137 390 186 3 187 2 6 -232 c4 -128 6 -435 4 -683 l-3
-450 -145 0 -145 0 0 210 c0 116 3 329 7 475 l8 265 -30 -75 c-16 -41 -77
-208 -135 -370 -58 -162 -123 -342 -144 -400 l-39 -105 -100 -3 -100 -3 -16
43 c-8 24 -40 111 -70 193 -134 367 -160 438 -210 570 -30 77 -56 147 -58 155
-6 16 -4 -41 12 -374 6 -115 10 -294 10 -397 l0 -189 -145 0 -145 0 0 685 0
685 186 -2 186 -3 62 -165z"/>
</g>
</svg>
