<svg id="logo" xmlns="http://www.w3.org/2000/svg" viewBox="-1.001 -1.004 47.31 43.995">
	<style>
		#logo {
			filter: hue-rotate(-10deg) brightness(0.9);
		}
		#logo path{
			stroke-width:0.1px;
			stroke: #fff;
		}
	</style>
    <path d="M4.33 7.5L0 10V0l4.33 2.5L8.66 5 4.33 7.5z" style="fill: hsl(10, 100%, 50%);"/>
    <path d="M8.66 10v5l-4.33-2.5L0 10l4.33-2.5L8.66 5v5z" style="fill: hsl(25, 100%, 50%);"/>
    <path d="M4.33 17.5L0 20V10l4.33 2.5L8.66 15l-4.33 2.5z" style="fill: hsl(35, 100%, 50%);"/>
    <path d="M12.99 12.5L8.66 15V5l4.33 2.5 4.33 2.5-4.33 2.5z" style="fill: hsl(35, 100%, 50%);"/>
    <path d="M17.32 5v5l-4.33-2.5L8.66 5l4.33-2.5L17.32 0v5z" style="fill: hsl(45, 100%, 50%);"/>
    <path d="M21.65 7.5L17.32 10V0l4.33 2.5L25.98 5l-4.33 2.5z" style="fill: hsl(55, 100%, 50%);"/>
    <path d="M8.66 20v5l-4.33-2.5L0 20l4.33-2.5L8.66 15v5z" style="fill: hsl(45, 100%, 50%);"/>
    <path d="M4.33 27.5L0 30V20l4.33 2.5L8.66 25l-4.33 2.5z" style="fill: hsl(55, 100%, 50%);"/>
    <path d="M21.65 17.5L17.32 20V10l4.33 2.5 4.33 2.5-4.33 2.5z" style="fill: hsl(75, 100%, 50%);"/>
    <path d="M25.98 10v5l-4.33-2.5-4.33-2.5 4.33-2.5L25.98 5v5z" style="fill: hsl(65, 100%, 50%);"/>
    <path d="M30.31 12.5L25.98 15V5l4.33 2.5 4.33 2.5-4.33 2.5z" style="fill: hsl(75, 100%, 50%);"/>
    <path d="M34.64 5v5l-4.33-2.5L25.98 5l4.33-2.5L34.64 0v5z" style="fill: hsl(85, 100%, 50%);"/>
    <path d="M38.97 7.5L34.64 10V0l4.33 2.5L43.3 5l-4.33 2.5z" style="fill: hsl(95, 100%, 50%);"/>
    <path d="M8.66 29.99v5l-4.33-2.5L0 29.99l4.33-2.5 4.33-2.5v5z" style="fill: hsl(65, 100%, 50%);"/>
    <path d="M4.34 37.49l-4.33 2.5v-10l4.33 2.5 4.33 2.5-4.33 2.5z" style="fill: hsl(75, 100%, 50%);"/>
	<path d="M21.65 27.5L17.32 30V20l4.33 2.5 4.33 2.5-4.33 2.5z" style="fill: hsl(95, 100%, 50%);"/>
    <path d="M25.98 20v5l-4.33-2.5-4.33-2.5 4.33-2.5 4.33-2.5v5z" style="fill: hsl(85, 100%, 50%);"/>
    <path d="M38.97 17.5L34.64 20V10l4.33 2.5L43.3 15l-4.33 2.5z" style="fill: hsl(155, 100%, 50%);"/>
    <path d="M43.3 10v5l-4.33-2.5-4.33-2.5 4.33-2.5L43.3 5v5z" style="fill: hsl(105, 100%, 50%);"/>
    <path d="M25.98 29.99v5l-4.33-2.5-4.33-2.5 4.33-2.5 4.33-2.5v5z" style="fill: hsl(155, 100%, 50%);"/>
    <path d="M38.97 27.5L34.64 30V20l4.33 2.5L43.3 25l-4.33 2.5z" style="fill: hsl(185, 100%, 50%);"/>
    <path d="M43.3 20v5l-4.33-2.5-4.33-2.5 4.33-2.5L43.3 15v5z" style="fill: hsl(175, 100%, 50%);"/>
    <path d="M43.3 29.99v5l-4.33-2.5-4.33-2.5 4.33-2.5 4.33-2.5v5z" style="fill: hsl(195, 100%, 50%);"/>
    <path d="M38.98 37.49l-4.33 2.5v-10l4.33 2.5 4.33 2.5-4.33 2.5z" style="fill: hsl(205, 100%, 50%);"/>
</svg>