<svg xmlns="http://www.w3.org/2000/svg" preserveAspectRatio="xMidYMid meet" viewBox="-1 -1 47.3 44" width="43" height="40"><style>.a{fill:#150583;}</style><defs><path d="M4.3 7.5L0 10 0 5 0 0 4.3 2.5 8.7 5 4.3 7.5Z"/><path d="M4.3 17.5L0 20 0 15 0 10 4.3 12.5 8.7 15 4.3 17.5Z"/><path d="M8.7 20L8.7 25 4.3 22.5 0 20 4.3 17.5 8.7 15 8.7 20Z"/><path d="M8.7 10L8.7 15 4.3 12.5 0 10 4.3 7.5 8.7 5 8.7 10Z"/><path d="M4.3 27.5L0 30 0 25 0 20 4.3 22.5 8.7 25 4.3 27.5Z"/><path d="M4.3 37.5L0 40 0 35 0 30 4.3 32.5 8.7 35 4.3 37.5Z"/><path d="M8.7 30L8.7 35 4.3 32.5 0 30 4.3 27.5 8.7 25 8.7 30Z"/><path d="M21.7 7.5L17.3 10 17.3 5 17.3 0 21.7 2.5 26 5 21.7 7.5Z"/><path d="M21.7 17.5L17.3 20 17.3 15 17.3 10 21.7 12.5 26 15 21.7 17.5Z"/><path d="M26 20L26 25 21.7 22.5 17.3 20 21.7 17.5 26 15 26 20Z"/><path d="M26 10L26 15 21.7 12.5 17.3 10 21.7 7.5 26 5 26 10Z"/><path d="M21.7 27.5L17.3 30 17.3 25 17.3 20 21.7 22.5 26 25 21.7 27.5Z"/><path d="M26 30L26 35 21.7 32.5 17.3 30 21.7 27.5 26 25 26 30Z"/><path d="M39 7.5L34.6 10 34.6 5 34.6 0 39 2.5 43.3 5 39 7.5Z"/><path d="M39 17.5L34.6 20 34.6 15 34.6 10 39 12.5 43.3 15 39 17.5Z"/><path d="M43.3 20L43.3 25 39 22.5 34.6 20 39 17.5 43.3 15 43.3 20Z"/><path d="M43.3 10L43.3 15 39 12.5 34.6 10 39 7.5 43.3 5 43.3 10Z"/><path d="M39 27.5L34.6 30 34.6 25 34.6 20 39 22.5 43.3 25 39 27.5Z"/><path d="M39 37.5L34.7 40 34.7 35 34.7 30 39 32.5 43.3 35 39 37.5Z"/><path d="M43.3 30L43.3 35 39 32.5 34.6 30 39 27.5 43.3 25 43.3 30Z"/><path d="M13 12.5L8.7 15 8.7 10 8.7 5 13 7.5 17.3 10 13 12.5Z"/><path d="M17.3 5L17.3 10 13 7.5 8.7 5 13 2.5 17.3 0 17.3 5Z"/><path d="M30.3 12.5L26 15 26 10 26 5 30.3 7.5 34.6 10 30.3 12.5Z"/><path d="M34.6 5L34.6 10 30.3 7.5 26 5 30.3 2.5 34.6 0 34.6 5Z"/></defs><use class="a"/><use class="a"/><use class="a"/><use class="a"/><use class="a"/><use class="a"/><use class="a"/><use class="a"/><use class="a"/><use class="a"/><use class="a"/><use class="a"/><use class="a"/><use class="a"/><use class="a"/><use class="a"/><use class="a"/><use class="a"/><use class="a"/><use class="a"/><use class="a"/><use class="a"/><use class="a"/><use class="a"/></svg>