<svg version="1" xmlns="http://www.w3.org/2000/svg" width="352" height="352" viewBox="0 0 264.000000 264.000000"><path d="M23.8 6C17.2 8 8.3 15.9 4.3 23.1 2.6 26.3 2.5 31.5 2.5 130v103.5l3.5.5c3.1.4 3.6.9 4 4 .4 3.1.9 3.6 4 4 3.1.4 3.6.9 4 4 .4 2.8 1 3.6 3 3.8 1.4.2 3.4.7 4.5 1.3 1.3.6 38.5.9 104 .7l102-.3 5.7-2.8c6.5-3.2 12.1-8.9 15.2-15.6 2.1-4.6 2.1-5.1 2.4-94.1.2-63.8 0-91-.8-94.7-.9-4.2-2-6-5.1-8.6-2.1-1.9-3.9-3.7-3.9-4.1 0-1.6-19.8-20.9-24-23.4l-4.5-2.7-95-.2c-52.2-.1-96.2.2-97.7.7zm67.6 60c3.4 9.1 11.1 30.5 17.1 47.7 6.1 17.2 11.3 30.9 11.6 30.5 1.3-1.5 7.5-18.1 20.7-55.7l13.7-39 18.6-.3 18.7-.2.6 23.2c.4 12.8.6 43.5.4 68.3l-.3 45h-29v-21c0-11.6.3-32.9.7-47.5l.8-26.5-3 7.5c-1.6 4.1-7.7 20.8-13.5 37s-12.3 34.2-14.4 40l-3.9 10.5-10 .3-10 .3-1.6-4.3c-.8-2.4-4-11.1-7-19.3-13.4-36.7-16-43.8-21-57-3-7.7-5.6-14.7-5.8-15.5-.6-1.6-.4 4.1 1.2 37.4.6 11.5 1 29.4 1 39.7V186H48V49l18.6.2 18.6.3L91.4 66z"/></svg>